# xmcd
# 
# Track frame offsets:
#     158
#     24280
#     39230
#     56970
#     89778
#     99308
#     117468
#     143773
#     164278
#     190288
# 
# Disc length: 2804
# 
# Revision: 3
# Processed by: cddbd v1.5.2PL0 Copyright (c) Steve Scherf et al.
# Submitted via: BonkEnc v1.0.8
# 
DISCID=850af20a
DTITLE=Zucchero - Oro Incenso and Birra
DYEAR=1988
DGENRE=Pop
TTITLE0=Overdose
TTITLE1=Nice (Nietzsche) Che Dice
TTITLE2=Il Mare Impetuoso Al Tramonto Sal  Sulla Luna E Dietro Una Tendina Di Stelle
TTITLE3=Madre Dolcissima
TTITLE4=Libera L'amore
TTITLE5=Diavolo In Me
TTITLE6=Iruben Me
TTITLE7=A Wonderful World
TTITLE8=Diamante
TTITLE9=Senza Una Donna (Without A Woman)
EXTD=
EXTT0=
EXTT1=
EXTT2=
EXTT3=
EXTT4=
EXTT5=
EXTT6=
EXTT7=
EXTT8=
EXTT9=
PLAYORDER=
